<svg width="15" height="26" xmlns="http://www.w3.org/2000/svg" xmlns:xlink="http://www.w3.org/1999/xlink"><defs><path id="a" d="M0 0h15v26H0z"/></defs><g transform="matrix(1 0 0 -1 0 26)" fill="none" fill-rule="evenodd"><mask id="b" fill="#fff"><use xlink:href="#a"/></mask><path d="M15 13a.358.358 0 00-.003-.054c-.009-.088-.03-.2-.036-.337L14 11.596l-.013-.005a2787.864 2787.864 0 00-4.734-6.19l-1.035-.074-2.201-2.872-1.048-.073L3.667.683l-1.03-.09L2.143.05.73 0 .566 1.143c-.243.285-.643.454-.553 1.14.85 1.11 1.794 2.35 2.751 3.578.137.175.337.287.507.427l.813.03c.315.41.659.9 1.041 1.348.455.532.752 1.241 1.39 1.556l.757.027 2.622 3.421 1.076.112.167.218-.167.218-1.076.112c-.885 1.155-1.762 2.3-2.622 3.42l-.757.028c-.638.315-.935 1.023-1.39 1.556-.382.448-.726.938-1.041 1.348l-.813.03c-.17.14-.37.252-.507.427-.957 1.228-1.901 2.469-2.751 3.578-.09.685.31.855.553 1.14L.73 26l1.413-.05.494-.543 1.03-.09c.42-.55.86-1.123 1.302-1.699l1.048-.073 2.2-2.872 1.036-.074a2907.49 2907.49 0 004.734-6.19l.013-.005.96-1.014c.008-.136.028-.248.037-.336A.363.363 0 0015 13" fill="#F4F4E8" mask="url(#b)"/></g></svg>